<svg xmlns="http://www.w3.org/2000/svg" width="60" height="60" viewBox="0 0 60 60"><path d="M35 11.543H24.5V7H35v4.543zm10.5 0V7h3.2a5.3 5.3 0 015.3 5.3v38.4a5.3 5.3 0 01-5.3 5.3H10.3A5.3 5.3 0 015 50.7V12.3A5.3 5.3 0 0110.3 7H14v4.543h-3.7a.757.757 0 00-.757.757V23h39.914V12.3a.757.757 0 00-.757-.757h-3.2zM35.002 27.5h-11.5V37h11.5v-9.5zm4.5 0V37h9.955v-9.5h-9.955zm-4.5 23.957V41.5h-11.5v9.957h11.5zm4.5 0H48.7a.757.757 0 00.757-.757v-9.2h-9.955v9.957zM19.002 27.5H9.543V37h9.459v-9.5zm0 23.957V41.5H9.543v9.2c0 .418.339.757.757.757h8.702zM17 4.816a2.25 2.25 0 114.5 0v7.5a2.25 2.25 0 11-4.5 0v-7.5zm21 0a2.25 2.25 0 114.5 0v7.5a2.25 2.25 0 11-4.5 0v-7.5z"/></svg>