<svg xmlns="http://www.w3.org/2000/svg" width="32" height="32" viewBox="0 0 32 32"><path d="M20.038 4.29H4.895a.606.606 0 00-.606.606v22.21c0 .335.271.606.606.606h15.143V4.291zm2.423 0v23.421h4.644a.606.606 0 00.606-.606V4.895a.606.606 0 00-.606-.606h-4.644zM4.895 1.867h22.21a3.029 3.029 0 013.029 3.029v22.21a3.029 3.029 0 01-3.029 3.029H4.895a3.029 3.029 0 01-3.029-3.029V4.896a3.029 3.029 0 013.029-3.029zM13.479 16l-4.191-4.191a1.211 1.211 0 011.713-1.713l5.048 5.048c.473.473.473 1.24 0 1.713l-5.048 5.048a1.211 1.211 0 01-1.713-1.713l4.191-4.191z"/></svg>